<?xml width="128" height="128" xmlns="http://www.w3.org/2000/svg"><!DOCTYPE svg PUBLIC "-//W3C//DTD SVG 1.1//EN" "http://www.w3.org/Graphics/SVG/1.1/DTD/svg11.dtd"><svg t="1587001645689" class="icon" viewBox="0 0 1024 1024" version="1.1" xmlns="http://www.w3.org/2000/svg" p-id="2129" xmlns:xlink="http://www.w3.org/1999/xlink" width="200" height="200"><defs><style type="text/css"></style></defs><path d="M908.5 968.5h-140V766.643c51.754 24.767 97.843 56.339 125 94.857 29.168 41.371 15.356 107 15 107z m-118-656h-556c-5.523 0-10-4.477-10-10v-44c0-5.523 4.477-10 10-10h56.285c15.53-108.551 108.869-192 221.715-192s206.185 83.449 221.715 192H790.5c5.523 0 10 4.477 10 10v44c0 5.523-4.477 10-10 10z m-534 656h-142c-0.356 0-13.169-64.629 16-106 27.251-38.652 73.791-70.533 126-95.575V968.5z m181.71-353.857C360.709 579.436 308.911 487.316 303.5 376.5h420c-5.411 110.816-59.209 202.936-136.711 238.143-8.86 4.025-14.507 12.899-14.507 22.624v47.249c0 11.867 8.384 22.055 20.023 24.419 34.325 6.971 73.353 17.37 112.195 31.238V968.5h-384V740.344c38.905-13.972 77.947-24.454 112.194-31.409 11.639-2.364 20.023-12.552 20.023-24.419v-47.249c0-9.726-5.647-18.599-14.507-22.624z" p-id="2130"></path></svg>